<?xml version="1.0" standalone="no"?>
<!DOCTYPE svg PUBLIC "-//W3C//DTD SVG 20010904//EN"
 "http://www.w3.org/TR/2001/REC-SVG-20010904/DTD/svg10.dtd">
<svg version="1.0" xmlns="http://www.w3.org/2000/svg"
 width="700.000000pt" height="700.000000pt" viewBox="0 0 700.000000 700.000000"
 preserveAspectRatio="xMidYMid meet">
<metadata>
Created by potrace 1.14, written by Peter Selinger 2001-2017
</metadata>
<g transform="translate(0.000000,700.000000) scale(0.100000,-0.100000)"
fill="#000000" stroke="none">
<path d="M2261 6485 l-1234 -512 -513 -1237 -512 -1236 512 -1237 513 -1236
1237 -513 1237 -512 1236 512 1236 512 512 1237 513 1237 -513 1237 -512 1237
-1239 513 c-681 282 -1238 513 -1239 512 0 -1 -555 -232 -1234 -514z m1754
-585 c237 -14 677 -48 820 -63 l120 -12 159 -130 c159 -129 160 -130 198 -212
37 -79 120 -315 133 -379 6 -31 2 -35 -257 -249 -145 -120 -267 -222 -273
-228 -7 -6 98 -8 302 -4 l312 5 6 -42 c10 -75 24 -289 31 -463 l7 -172 -174
-181 c-96 -100 -175 -184 -177 -188 -1 -4 79 -54 178 -111 l180 -102 0 -153
c0 -84 5 -245 10 -357 32 -652 114 -1129 275 -1605 30 -89 55 -165 55 -169 0
-10 -660 1 -915 15 -775 42 -962 51 -1284 60 -201 6 -367 13 -370 16 -3 3 -7
107 -9 230 -2 123 -5 224 -8 224 -2 0 -100 -77 -217 -171 -116 -95 -217 -176
-223 -180 -7 -6 -44 42 -110 145 -54 85 -101 153 -104 151 -3 -2 -57 -104
-120 -228 l-115 -224 -163 -18 c-90 -9 -164 -16 -166 -14 -3 5 -830 920 -951
1054 l-91 100 8 105 c12 164 35 375 83 770 84 690 97 845 97 1160 1 331 -26
575 -93 845 -26 107 -70 259 -86 300 -5 14 25 15 251 13 141 -2 255 0 254 3
-2 4 -83 74 -181 155 -98 82 -175 150 -170 151 72 22 652 102 888 124 l130 11
332 -338 c183 -187 332 -332 333 -324 0 8 -14 157 -30 330 -16 173 -30 328
-30 344 l0 29 493 -6 c270 -3 569 -11 662 -17z"/>
<path d="M3797 5473 c-32 -50 -105 -168 -141 -229 -16 -27 -59 -96 -94 -154
-35 -58 -80 -131 -99 -163 -19 -32 -40 -56 -46 -54 -12 4 -18 14 -91 152 -59
110 -66 121 -77 103 -5 -7 -35 -76 -68 -153 -33 -77 -128 -298 -210 -492 -83
-193 -151 -355 -151 -361 0 -5 10 -16 23 -24 22 -15 149 -68 162 -68 7 0 15
18 160 358 60 138 111 252 115 252 4 0 27 -37 50 -82 24 -46 65 -123 91 -173
26 -49 52 -91 58 -93 10 -3 155 70 175 88 4 5 -19 61 -53 124 -33 64 -61 122
-61 129 0 11 97 173 215 360 21 32 41 55 44 50 17 -19 221 -509 221 -530 0
-10 -56 -97 -125 -193 l-126 -175 30 -25 c16 -14 53 -42 82 -62 43 -31 55 -35
67 -25 12 10 158 209 249 340 12 18 51 73 87 122 36 50 75 104 88 122 13 18
27 31 32 30 9 -3 64 -91 163 -262 23 -38 66 -113 96 -165 31 -52 67 -112 81
-133 l26 -38 68 37 c75 42 102 62 102 78 0 9 -99 183 -205 361 -23 39 -68 115
-100 170 -33 55 -83 139 -112 187 -29 48 -53 91 -53 95 0 5 -11 22 -25 38
l-25 30 -26 -30 c-14 -16 -37 -47 -52 -69 -15 -21 -34 -48 -42 -60 -70 -102
-113 -157 -122 -154 -5 2 -23 35 -40 73 -16 39 -36 84 -44 102 -8 17 -14 33
-14 36 0 3 -13 34 -29 69 -15 35 -70 161 -122 281 -51 119 -96 217 -101 217
-4 0 -18 -17 -31 -37z"/>
<path d="M1675 4826 c-29 -133 -31 -127 55 -152 119 -36 114 -38 150 72 18 52
30 98 27 100 -7 8 -179 54 -198 54 -13 0 -21 -18 -34 -74z"/>
<path d="M2056 4666 c-25 -46 -46 -86 -46 -89 0 -2 32 -28 70 -56 l71 -51 69
61 c38 34 71 68 74 75 9 24 -139 144 -177 144 -9 0 -35 -36 -61 -84z"/>
<path d="M2317 4373 c-43 -13 -81 -31 -84 -38 -3 -8 -1 -47 4 -87 l8 -73 80
-12 c137 -20 125 -27 124 80 -2 120 -9 152 -34 154 -11 1 -55 -10 -98 -24z"/>
<path d="M2149 3929 c-22 -45 -38 -87 -36 -94 3 -6 34 -27 69 -45 34 -18 67
-36 73 -41 27 -26 47 -8 86 77 22 48 39 93 37 101 -3 13 -147 81 -175 83 -7 0
-31 -36 -54 -81z"/>
<path d="M2002 3615 c-13 -29 -45 -195 -39 -201 7 -8 197 -27 203 -22 11 11
44 172 37 179 -8 8 -169 69 -182 69 -4 0 -13 -11 -19 -25z"/>
<path d="M4276 3398 c-3 -29 -6 -76 -6 -104 l0 -51 75 -25 c54 -18 77 -22 84
-14 25 31 91 148 91 162 0 17 -68 50 -145 70 -86 23 -91 21 -99 -38z"/>
<path d="M3932 3401 c-46 -16 -86 -31 -89 -34 -5 -6 65 -197 72 -197 13 0 172
53 178 60 7 6 -10 110 -30 183 -6 23 -33 21 -131 -12z"/>
<path d="M3557 3209 c-42 -27 -77 -54 -77 -60 0 -5 21 -47 46 -94 36 -66 49
-83 62 -78 33 13 172 105 172 115 0 10 -103 153 -117 161 -5 3 -43 -17 -86
-44z"/>
<path d="M2070 3206 c-82 -22 -85 -24 -83 -50 4 -54 89 -196 117 -196 8 0 46
30 85 68 l71 67 -41 65 c-22 36 -45 66 -52 67 -7 1 -50 -9 -97 -21z"/>
<path d="M4610 3143 c-41 -26 -78 -51 -81 -56 -10 -15 64 -167 81 -166 8 0 53
12 100 27 78 26 85 30 82 53 -6 36 -82 189 -96 189 -6 0 -45 -21 -86 -47z"/>
<path d="M3201 3040 c-41 -15 -76 -31 -78 -36 -4 -11 43 -183 52 -192 7 -8
165 44 190 62 19 13 18 16 -16 102 -26 68 -39 89 -54 90 -11 1 -54 -10 -94
-26z"/>
<path d="M2382 2996 c-19 -23 -73 -158 -70 -174 3 -18 120 -59 184 -64 l39 -3
12 80 c21 126 21 124 -74 150 -61 17 -85 20 -91 11z"/>
<path d="M2875 2964 c-11 -2 -46 -6 -78 -9 l-58 -7 3 -101 3 -102 30 -3 c40
-5 168 7 184 17 10 7 11 24 1 87 -20 135 -16 129 -85 118z"/>
<path d="M4750 2759 c-25 -4 -60 -11 -78 -14 l-34 -6 7 -62 c14 -143 12 -137
59 -137 24 0 71 3 106 7 l63 6 -7 78 c-10 127 -14 139 -45 138 -14 -1 -46 -5
-71 -10z"/>
<path d="M4104 2388 c3 -24 10 -96 17 -161 7 -65 17 -124 23 -131 6 -7 75 -36
153 -65 246 -90 378 -147 378 -165 0 -18 -124 -130 -202 -182 -75 -50 -196
-108 -278 -134 -38 -12 -77 -24 -85 -27 -30 -11 35 -21 147 -22 219 -2 422 62
678 214 l31 18 84 -52 c120 -75 255 -187 366 -305 106 -112 114 -107 46 29
-62 125 -142 233 -275 373 l-70 72 90 93 c111 115 213 263 213 310 0 12 -298
147 -325 147 -6 0 -59 -72 -118 -160 -60 -88 -115 -160 -122 -160 -7 0 -63 34
-125 75 -189 126 -517 275 -607 275 -23 0 -24 -2 -19 -42z"/>
</g>
</svg>
